<svg viewBox="14.8565 183.0007 106.964 106.964" xmlns="http://www.w3.org/2000/svg">
  <g transform="matrix(1, 0, 0, 1, 5.89149379730226, -4.869319915771484)">
    <g>
      <ellipse style="font-style: normal; font-weight: 300; font-size: 72px; line-height: 1; font-family: 'Montserrat Light Alt1'; font-variant-ligatures: none; text-align: center; text-anchor: middle; fill: rgb(237, 134, 27); stroke: rgba(0, 0, 0, 0);" cx="62.447" cy="241.352" rx="53.482" ry="53.482"/>
    </g>
    <path id="path455609" style="font-style: normal; font-weight: 300; font-size: 72px; line-height: 1; font-family: 'Montserrat Light Alt1'; font-variant-ligatures: none; text-align: center; text-anchor: middle; fill: rgb(253, 248, 235); paint-order: fill; stroke: rgb(253, 248, 235);" d="M 83.07 219.741 C 79.074 216.385 73.56 214.706 66.527 214.706 L 46.467 214.706 L 46.467 218.383 L 66.527 218.383 C 72.441 218.383 76.996 219.741 80.193 222.379 C 83.31 225.016 84.908 228.772 84.908 233.567 C 84.908 238.443 83.31 242.199 80.193 244.756 C 76.996 247.394 72.441 248.672 66.527 248.672 L 46.467 248.672 L 46.467 270.65 L 50.543 270.65 L 50.543 252.349 L 66.527 252.349 C 73.56 252.349 79.074 250.75 83.07 247.394 C 87.066 244.037 89.064 239.481 89.064 233.567 C 89.064 227.733 87.066 223.098 83.07 219.741 Z" stroke-width="3" stroke-linejoin="miter" stroke-miterlimit="2"/>
  </g>
</svg>
