<svg viewBox="14.8565 183.0007 106.964 106.964" xmlns="http://www.w3.org/2000/svg">
  <g transform="matrix(1, 0, 0, 1, 1.4210854715202004e-14, 0)">
    <g transform="matrix(1, 0, 0, 1, 5.891494, -4.86932)">
      <ellipse style="font-style: normal; font-weight: 300; font-size: 72px; line-height: 1; font-family: 'Montserrat Light Alt1'; font-variant-ligatures: none; text-align: center; text-anchor: middle; stroke: rgb(253, 248, 235); fill: rgb(253, 248, 235);" cx="62.447" cy="241.352" rx="53.482" ry="53.482"/>
    </g>
  </g>
  <g transform="matrix(1, 0, 0, 1, 1.4210854715202004e-14, 0)">
    <path id="path455609" style="font-style: normal; font-weight: 300; font-size: 72px; line-height: 1; font-family: 'Montserrat Light Alt1'; font-variant-ligatures: none; text-align: center; text-anchor: middle; paint-order: fill; fill: rgb(237, 134, 27); stroke: rgb(237, 134, 27);" d="M 88.961 214.872 C 84.965 211.516 79.451 209.837 72.418 209.837 L 52.358 209.837 L 52.358 213.514 L 72.418 213.514 C 78.332 213.514 82.887 214.872 86.084 217.51 C 89.201 220.147 90.799 223.903 90.799 228.698 C 90.799 233.574 89.201 237.33 86.084 239.887 C 82.887 242.525 78.332 243.803 72.418 243.803 L 52.358 243.803 L 52.358 265.781 L 56.434 265.781 L 56.434 247.48 L 72.418 247.48 C 79.451 247.48 84.965 245.881 88.961 242.525 C 92.957 239.168 94.955 234.612 94.955 228.698 C 94.955 222.864 92.957 218.229 88.961 214.872 Z" stroke-width="3" stroke-linejoin="miter" stroke-miterlimit="2"/>
  </g>
</svg>
